<?xml version="1.0" encoding="utf-8"?>
<svg width="800px" height="800px" viewBox="0 0 16 16" xmlns="http://www.w3.org/2000/svg" fill="#ffffff" class="bi bi-markdown">
  <path d="M13 1a2 2 0 0 1 2 2v10a2 2 0 0 1-2 2H3a2 2 0 0 1-2-2V3a2 2 0 0 1 2-2h10zM3 2a1 1 0 0 0-1 1v10a1 1 0 0 0 1 1h10a1 1 0 0 0 1-1V3a1 1 0 0 0-1-1H3z"/>
  <path fill-rule="evenodd" d="M9.146 8.146a.5.5 0 0 1 .708 0L11.5 9.793l1.646-1.647a.5.5 0 0 1 .708.708l-2 2a.5.5 0 0 1-.708 0l-2-2a.5.5 0 0 1 0-.708z"/>
  <path fill-rule="evenodd" d="M11.5 5a.5.5 0 0 1 .5.5v4a.5.5 0 0 1-1 0v-4a.5.5 0 0 1 .5-.5z"/>
  <path d="M3.56 11V7.01h.056l1.428 3.239h.774l1.42-3.24h.056V11h1.073V5.001h-1.2l-1.71 3.894h-.039l-1.71-3.894H2.5V11h1.06z"/>
</svg>